<?xml version="1.0" standalone="no"?>
<!DOCTYPE svg PUBLIC "-//W3C//DTD SVG 20010904//EN"
 "http://www.w3.org/TR/2001/REC-SVG-20010904/DTD/svg10.dtd">
<svg version="1.0" xmlns="http://www.w3.org/2000/svg"
 width="424.000000pt" height="320.000000pt" viewBox="0 0 424.000000 320.000000"
 preserveAspectRatio="xMidYMid meet">

<g transform="translate(0.000000,320.000000) scale(0.100000,-0.100000)"
fill="#000000" stroke="none">
<path d="M2011 3026 c-14 -14 -29 -26 -34 -26 -6 0 -32 -22 -58 -50 -26 -27
-52 -50 -57 -50 -5 0 -23 -16 -41 -35 -17 -19 -38 -35 -45 -35 -33 0 -46 -46
-46 -160 0 -60 3 -110 8 -110 4 0 27 -19 52 -41 25 -23 55 -48 68 -56 22 -15
22 -18 22 -250 0 -184 3 -234 13 -229 6 2 37 12 67 21 30 9 66 21 78 28 l24
11 -7 441 c-4 242 -10 469 -14 503 l-6 64 -24 -26z"/>
<path d="M2120 2545 c0 -391 3 -485 13 -485 31 0 37 24 37 151 0 70 4 130 8
133 5 3 95 -45 200 -106 l192 -111 0 -104 c0 -107 14 -153 46 -153 12 0 14 69
14 419 l0 420 -27 20 c-16 12 -33 25 -40 31 -7 5 -14 10 -17 10 -6 0 -126 75
-143 90 -7 5 -15 10 -18 10 -9 0 -90 54 -93 63 -2 4 -8 7 -14 7 -6 0 -31 15
-57 33 -25 18 -58 38 -73 44 l-28 13 0 -485z m210 298 c8 -4 36 -22 62 -40 26
-18 50 -33 52 -33 3 0 32 -18 65 -40 l61 -41 0 -54 c0 -30 -4 -55 -9 -55 -5 0
-69 35 -143 78 -73 44 -138 81 -143 83 -6 2 -31 18 -57 34 l-48 30 0 61 c0 33
3 63 6 67 3 3 36 -15 72 -39 37 -24 74 -47 82 -51z m10 -177 c8 -4 33 -18 55
-32 22 -13 52 -30 68 -36 15 -7 27 -16 27 -20 0 -4 6 -8 13 -8 16 0 76 -49 60
-50 -14 0 -100 46 -124 66 -8 8 -19 14 -23 14 -18 0 -246 142 -241 150 3 5 38
-10 78 -34 39 -23 79 -46 87 -50z m-115 4 c17 -8 32 -17 35 -20 3 -3 16 -11
30 -18 14 -6 32 -16 40 -22 8 -5 63 -37 123 -71 103 -59 130 -79 107 -79 -11
0 -83 38 -135 70 -16 11 -43 26 -60 35 -16 8 -48 26 -70 39 -22 13 -59 34 -82
47 -23 12 -40 26 -37 31 3 5 9 8 12 6 4 -2 21 -10 37 -18z m-15 -55 c7 -8 16
-15 21 -15 5 0 84 -43 174 -96 l165 -96 0 -54 c0 -30 -4 -54 -9 -54 -5 0 -48
23 -96 50 -48 28 -89 50 -93 50 -3 0 -13 6 -21 14 -9 7 -36 25 -61 38 -125 69
-115 59 -118 121 -2 44 0 57 11 57 8 0 20 -7 27 -15z m137 -235 c84 -49 155
-90 158 -90 11 0 65 -44 65 -52 0 -12 -202 99 -208 114 -2 4 -8 8 -13 8 -12 0
-168 91 -175 102 -14 23 33 0 173 -82z m-22 -48 c17 -10 32 -19 35 -22 6 -6
43 -27 90 -52 56 -29 104 -59 115 -70 15 -16 -47 1 -66 18 -8 8 -19 14 -23 14
-7 0 -218 121 -226 130 -3 3 -18 12 -34 20 -16 8 -31 21 -34 28 -4 12 28 -2
143 -66z"/>
<path d="M1363 2522 l-133 -107 0 -320 0 -320 123 123 c67 67 127 122 134 122
6 0 14 7 17 16 9 23 7 594 -1 594 -5 -1 -68 -49 -140 -108z"/>
<path d="M1556 2623 c-9 -9 -7 -576 2 -588 9 -13 186 -76 230 -83 l32 -4 -1
238 0 239 -92 73 c-51 40 -108 86 -128 102 -20 16 -39 27 -43 23z"/>
<path d="M2265 2044 c-22 -9 -53 -19 -70 -24 -16 -5 -110 -36 -207 -69 -97
-34 -185 -61 -195 -61 -10 0 -49 12 -88 26 -67 24 -147 49 -190 60 -15 4 -56
-31 -180 -156 -88 -88 -154 -160 -147 -160 14 0 71 52 223 203 43 42 84 77 91
77 7 0 63 -51 123 -113 l110 -114 121 -6 c67 -4 145 -12 174 -18 28 -6 54 -8
57 -5 4 3 -6 20 -22 36 -16 16 -27 32 -24 34 2 3 67 68 143 145 l139 141 56
-52 c31 -29 94 -89 140 -134 56 -54 90 -80 100 -76 21 8 -264 282 -293 282
-12 -1 -39 -8 -61 -16z"/>
<path d="M2575 1700 c-43 -44 -77 -81 -74 -84 2 -2 41 -7 85 -11 l82 -7 42 53
c23 30 46 56 51 57 5 2 9 10 9 17 0 7 7 16 17 19 11 5 43 -20 112 -89 52 -52
102 -95 110 -95 9 0 -34 50 -94 110 l-110 110 -75 0 -75 0 -80 -80z"/>
<path d="M2160 1523 l5 -58 65 -13 c213 -41 474 -65 620 -56 117 7 378 62 403
84 5 4 -67 6 -160 3 -92 -3 -208 0 -258 6 -49 6 -133 15 -185 21 -52 6 -104
15 -115 20 -11 5 -54 12 -95 15 -41 4 -109 13 -150 21 -41 8 -89 14 -105 14
l-30 0 5 -57z"/>
<path d="M470 920 l0 -271 63 3 62 3 3 113 c1 61 5 112 8 112 8 0 43 -43 44
-53 0 -4 8 -20 19 -35 10 -15 35 -53 56 -84 l37 -58 69 0 c38 0 69 4 69 8 0 5
-19 35 -42 68 -146 208 -139 195 -121 223 9 15 28 44 42 66 14 22 29 42 34 43
4 2 7 8 7 13 0 5 16 32 35 59 19 27 35 52 35 55 0 3 -29 5 -63 5 l-64 0 -54
-82 c-30 -46 -56 -87 -59 -93 -12 -25 -35 -55 -42 -55 -4 0 -9 51 -10 113 l-3
112 -62 3 -63 3 0 -271z"/>
<path d="M2492 923 l3 -268 60 0 60 0 5 100 5 100 73 3 72 3 0 54 0 55 -58 0
c-75 0 -94 14 -90 65 l3 40 78 3 78 3 -3 52 -3 52 -143 3 -142 3 2 -268z"/>
<path d="M2865 1178 c-3 -7 -4 -128 -3 -268 l3 -255 63 -3 62 -3 0 80 c0 44 4
82 8 85 4 2 28 -24 51 -59 70 -103 73 -105 146 -105 65 0 76 7 52 32 -7 7 -28
33 -47 58 -19 25 -43 54 -52 64 -25 27 -23 34 16 50 18 8 46 31 62 51 25 33
28 46 28 106 0 61 -3 72 -30 106 -48 59 -72 67 -221 71 -106 3 -134 1 -138
-10z m232 -118 c41 -25 50 -59 27 -99 -19 -33 -56 -46 -110 -39 -28 3 -29 5
-32 66 -2 38 2 69 9 78 16 20 69 17 106 -6z"/>
<path d="M3512 1173 c-5 -10 -22 -49 -36 -88 -15 -38 -34 -82 -42 -97 -8 -14
-14 -31 -14 -38 0 -7 -6 -26 -14 -43 -8 -18 -27 -61 -41 -97 -14 -36 -33 -79
-41 -97 -25 -56 -21 -63 44 -63 67 0 76 5 89 45 10 30 10 30 94 33 113 4 125
0 133 -43 l7 -35 69 0 c77 0 82 5 55 57 -8 15 -31 71 -51 123 -20 52 -44 113
-54 135 -9 22 -24 58 -32 80 -60 152 -51 140 -107 143 -40 2 -52 -1 -59 -15z
m74 -180 c4 -16 14 -52 24 -82 10 -30 16 -60 13 -68 -7 -17 -103 -18 -104 0
-3 34 39 177 53 177 4 0 11 -12 14 -27z"/>
<path d="M955 1163 c4 -10 13 -47 22 -83 8 -36 18 -74 23 -85 12 -32 40 -146
51 -205 5 -30 14 -63 19 -72 6 -10 10 -25 10 -33 0 -11 12 -15 50 -15 57 0 65
9 76 88 3 29 10 52 13 52 4 0 13 39 20 88 13 93 34 139 51 112 5 -8 10 -27 10
-42 0 -15 4 -29 9 -32 5 -4 12 -30 16 -59 4 -28 11 -57 16 -63 5 -6 12 -33 15
-60 10 -76 17 -84 73 -84 l48 0 7 46 c3 26 11 52 16 59 5 7 13 34 17 61 3 27
9 51 13 54 6 5 27 88 52 208 6 28 15 52 20 52 4 0 8 7 8 15 0 11 -13 15 -54
15 l-53 0 -12 -52 c-7 -29 -18 -84 -26 -123 -29 -145 -38 -175 -52 -175 -18 0
-29 31 -38 108 -4 34 -10 62 -15 62 -4 0 -11 23 -14 52 -4 29 -13 69 -19 90
-11 35 -15 38 -50 38 -22 0 -39 -5 -41 -12 -2 -7 -16 -74 -32 -148 -15 -74
-31 -139 -36 -144 -4 -6 -8 -18 -8 -28 0 -10 -7 -18 -15 -18 -10 0 -15 10 -15
30 0 17 -4 30 -8 30 -5 0 -14 30 -20 68 -6 37 -16 92 -22 122 -21 109 -14 100
-76 100 -49 0 -55 -2 -49 -17z"/>
<path d="M1700 925 l0 -255 60 0 60 0 0 255 0 255 -60 0 -60 0 0 -255z"/>
<path d="M1940 925 l0 -255 50 0 50 0 0 160 c0 152 1 160 20 160 17 0 47 -40
115 -158 6 -10 32 -50 58 -90 48 -71 49 -72 93 -72 l44 0 0 255 0 255 -45 0
-45 0 0 -164 c0 -130 -3 -165 -14 -169 -16 -6 -36 11 -36 30 0 7 -4 13 -9 13
-5 0 -14 15 -22 33 -7 17 -17 35 -21 38 -11 7 -46 67 -54 92 -4 9 -10 17 -15
17 -5 0 -9 4 -9 9 0 6 -14 30 -31 55 -29 44 -32 46 -80 46 l-49 0 0 -255z"/>
<path d="M870 519 c0 -5 5 -7 10 -4 6 3 10 8 10 11 0 2 -4 4 -10 4 -5 0 -10
-5 -10 -11z"/>
<path d="M1230 520 c0 -5 5 -10 10 -10 6 0 10 5 10 10 0 6 -4 10 -10 10 -5 0
-10 -4 -10 -10z"/>
<path d="M1498 468 c5 -107 9 -117 11 -25 0 48 -2 87 -6 87 -5 0 -7 -28 -5
-62z"/>
<path d="M1840 445 c0 -49 3 -85 7 -82 7 7 4 159 -3 166 -2 2 -4 -35 -4 -84z"/>
<path d="M2286 515 c-3 -9 -6 -22 -5 -28 0 -7 5 -1 10 12 5 13 8 26 5 28 -2 2
-6 -3 -10 -12z"/>
<path d="M3000 445 c0 -49 3 -85 7 -81 7 7 6 157 -2 164 -3 3 -5 -34 -5 -83z"/>
<path d="M3140 445 c0 -49 3 -86 6 -83 3 3 5 41 5 83 0 42 -2 80 -5 83 -3 3
-6 -34 -6 -83z"/>
<path d="M1942 500 c7 -10 14 -18 15 -16 6 6 -9 36 -18 36 -5 0 -4 -9 3 -20z"/>
<path d="M2942 490 c0 -19 2 -27 5 -17 2 9 2 25 0 35 -3 9 -5 1 -5 -18z"/>
<path d="M3242 490 c0 -14 2 -19 5 -12 2 6 2 18 0 25 -3 6 -5 1 -5 -13z"/>
<path d="M2360 444 c0 -15 3 -23 8 -18 4 5 10 11 13 14 4 3 1 11 -7 18 -12 11
-14 8 -14 -14z"/>
<path d="M2030 450 c0 -5 5 -10 11 -10 5 0 7 5 4 10 -3 6 -8 10 -11 10 -2 0
-4 -4 -4 -10z"/>
<path d="M3347 449 c7 -7 15 -10 18 -7 3 3 -2 9 -12 12 -14 6 -15 5 -6 -5z"/>
<path d="M870 434 c0 -8 5 -12 10 -9 6 3 10 10 10 16 0 5 -4 9 -10 9 -5 0 -10
-7 -10 -16z"/>
<path d="M1639 403 c4 -52 7 -49 13 10 2 22 0 37 -7 37 -6 0 -9 -18 -6 -47z"/>
<path d="M2860 442 c0 -5 14 -7 30 -4 17 2 30 6 30 8 0 2 -13 4 -30 4 -16 0
-30 -4 -30 -8z"/>
<path d="M1197 433 c-16 -15 -4 -21 48 -25 33 -2 54 1 52 7 -2 5 -21 8 -42 7
-21 -2 -41 1 -45 7 -3 6 -9 8 -13 4z"/>
<path d="M3382 410 c0 -14 2 -19 5 -12 2 6 2 18 0 25 -3 6 -5 1 -5 -13z"/>
<path d="M2220 380 c0 -5 5 -10 10 -10 6 0 10 5 10 10 0 6 -4 10 -10 10 -5 0
-10 -4 -10 -10z"/>
<path d="M2361 374 c0 -11 3 -14 6 -6 3 7 2 16 -1 19 -3 4 -6 -2 -5 -13z"/>
<path d="M1908 373 c7 -3 16 -2 19 1 4 3 -2 6 -13 5 -11 0 -14 -3 -6 -6z"/>
<path d="M2275 221 c-3 -5 -1 -12 5 -16 5 -3 10 1 10 9 0 18 -6 21 -15 7z"/>
<path d="M3621 214 c0 -11 3 -14 6 -6 3 7 2 16 -1 19 -3 4 -6 -2 -5 -13z"/>
<path d="M3782 223 c-6 -3 -10 -8 -8 -12 2 -3 -2 -33 -10 -66 -17 -75 -18
-108 -1 -102 6 2 11 13 9 25 -2 11 4 46 13 76 18 61 17 85 -3 79z"/>
<path d="M3929 230 c0 -3 -2 -16 -4 -30 -2 -14 -11 -52 -19 -85 -10 -35 -12
-63 -7 -68 12 -12 31 0 25 16 -2 7 2 44 10 82 9 44 11 74 5 80 -5 5 -9 7 -10
5z"/>
<path d="M41 130 c-8 -45 -11 -83 -8 -86 13 -14 25 10 32 63 3 32 9 68 12 81
3 15 1 22 -9 22 -10 0 -18 -23 -27 -80z"/>
<path d="M118 204 c18 -8 15 -51 -5 -63 -16 -9 -16 -10 -2 -11 40 0 53 72 14
77 -11 2 -14 0 -7 -3z"/>
<path d="M416 176 c-9 -19 -16 -47 -16 -64 0 -16 -7 -49 -15 -73 l-15 -44 19
25 c11 14 23 43 27 65 3 22 11 46 17 53 5 7 7 15 4 18 -3 3 -2 17 3 30 14 37
-6 29 -24 -10z"/>
<path d="M887 157 c-4 -29 -10 -67 -13 -85 -5 -24 -3 -32 8 -32 10 0 15 11 16
33 1 17 6 48 12 67 14 48 13 70 -4 70 -9 0 -15 -18 -19 -53z"/>
<path d="M2216 175 c-14 -32 -37 -135 -36 -159 1 -6 8 5 17 24 14 32 44 170
37 170 -2 0 -10 -16 -18 -35z"/>
<path d="M2806 139 c-4 -39 -10 -77 -13 -85 -3 -8 1 -14 10 -14 15 0 18 13 33
128 5 33 3 42 -9 42 -11 0 -16 -18 -21 -71z"/>
<path d="M2888 181 c3 -23 0 -30 -18 -36 -20 -6 -20 -8 -4 -19 13 -10 15 -21
10 -52 l-8 -39 21 19 c22 20 28 60 11 71 -6 4 -5 15 2 30 11 24 5 55 -10 55
-5 0 -7 -13 -4 -29z"/>
<path d="M3574 202 c-12 -8 -29 -52 -26 -66 2 -4 -4 -33 -13 -63 -9 -30 -14
-57 -12 -59 7 -8 37 63 37 88 0 13 4 28 9 34 7 8 24 74 18 74 -1 0 -7 -4 -13
-8z"/>
<path d="M4088 171 c-16 -36 -35 -151 -24 -151 10 0 48 138 44 163 -3 23 -4
22 -20 -12z"/>
<path d="M4010 190 c0 -5 5 -10 10 -10 6 0 10 5 10 10 0 6 -4 10 -10 10 -5 0
-10 -4 -10 -10z"/>
<path d="M1493 161 c-7 -10 -15 -42 -19 -70 -6 -44 -4 -51 11 -51 12 0 16 6
12 20 -3 11 -1 36 4 56 13 47 9 72 -8 45z"/>
<path d="M726 161 c-13 -20 -19 -121 -7 -121 6 0 11 3 12 8 0 4 2 21 3 37 1
17 6 42 10 58 8 26 -5 39 -18 18z"/>
<path d="M2049 163 c0 -5 -3 -24 -6 -43 -9 -59 -8 -73 3 -77 8 -2 12 11 12 38
1 23 6 47 11 52 16 16 13 37 -4 37 -8 0 -15 -3 -16 -7z"/>
<path d="M3379 163 c0 -5 -3 -17 -5 -28 -16 -66 -17 -98 -3 -93 8 3 14 23 16
49 2 24 7 45 12 47 12 4 3 32 -10 32 -5 0 -9 -3 -10 -7z"/>
<path d="M217 143 c10 -3 10 -10 2 -25 -9 -16 -8 -19 3 -16 7 3 14 14 16 26 3
16 -2 22 -15 21 -10 0 -13 -3 -6 -6z"/>
<path d="M295 142 c-10 -7 -19 -102 -10 -102 2 0 14 19 25 42 16 34 18 45 8
55 -7 7 -17 9 -23 5z"/>
<path d="M538 126 c-3 -14 -1 -26 4 -26 14 0 22 30 11 41 -7 7 -12 2 -15 -15z"/>
<path d="M974 142 c-12 -7 -24 -92 -13 -92 3 0 11 11 18 23 15 29 11 80 -5 69z"/>
<path d="M1030 148 c-1 -2 -2 -27 -4 -55 -2 -40 0 -53 10 -53 8 0 14 8 14 18
0 9 3 34 6 55 5 30 4 37 -10 37 -9 0 -16 -1 -16 -2z"/>
<path d="M1111 141 c-10 -7 -11 -9 0 -13 9 -3 10 -11 2 -35 -6 -17 -7 -36 -3
-44 12 -19 16 -11 24 49 7 52 3 59 -23 43z"/>
<path d="M1190 131 c0 -25 6 -27 13 -6 4 8 2 17 -3 20 -6 4 -10 -3 -10 -14z"/>
<path d="M1297 124 c-5 -29 8 -32 22 -5 8 14 7 20 -3 24 -9 4 -16 -3 -19 -19z"/>
<path d="M1568 144 c-4 -3 -4 -11 -2 -18 3 -7 0 -24 -5 -39 -6 -16 -7 -29 -1
-32 13 -8 36 73 24 85 -6 6 -13 8 -16 4z"/>
<path d="M1635 142 c-12 -8 -17 -92 -6 -92 4 0 13 19 20 41 12 41 5 65 -14 51z"/>
<path d="M1690 140 c-12 -7 -12 -10 -1 -10 13 0 13 -3 -5 -67 -5 -17 -2 -23
10 -23 9 0 16 8 16 18 0 9 3 34 6 55 7 38 1 44 -26 27z"/>
<path d="M1833 144 c3 -4 2 -16 -4 -26 -9 -16 -8 -19 3 -16 17 6 23 48 7 48
-7 0 -9 -3 -6 -6z"/>
<path d="M1900 142 c-10 -5 -16 -24 -18 -57 -2 -48 -2 -49 13 -27 15 20 33 93
24 91 -2 0 -11 -3 -19 -7z"/>
<path d="M1959 148 c-1 -1 -3 -27 -5 -55 -4 -43 -2 -53 11 -53 11 0 15 11 17
40 0 22 1 45 2 52 1 10 -22 25 -25 16z"/>
<path d="M2350 118 c0 -19 -5 -39 -12 -46 -9 -9 -8 -12 4 -12 26 0 41 71 18
85 -6 4 -10 -8 -10 -27z"/>
<path d="M2424 142 c-6 -4 -10 -16 -10 -27 0 -11 -4 -30 -8 -42 -12 -38 12
-26 29 13 15 36 9 69 -11 56z"/>
<path d="M2660 126 c0 -14 -4 -28 -10 -31 -13 -8 -13 -42 1 -50 14 -9 15 -7
23 53 4 33 3 52 -4 52 -5 0 -10 -11 -10 -24z"/>
<path d="M3008 126 c-3 -14 -1 -26 4 -26 14 0 22 30 11 41 -7 7 -12 2 -15 -15z"/>
<path d="M3150 133 c-1 -10 -7 -29 -15 -43 -9 -18 -10 -29 -3 -37 17 -21 27
-15 27 15 -1 15 2 39 6 55 5 17 3 27 -4 27 -6 0 -11 -8 -11 -17z"/>
<path d="M3235 142 c-6 -4 -12 -18 -13 -32 -1 -14 -3 -34 -5 -45 -1 -12 4 -20
12 -20 10 0 15 15 18 53 1 28 2 52 0 52 -1 0 -7 -4 -12 -8z"/>
<path d="M3300 135 c-6 -8 -14 -33 -17 -56 -5 -33 -3 -41 8 -37 8 3 14 13 15
24 1 10 4 34 8 52 8 35 5 40 -14 17z"/>
<path d="M3459 148 c0 -2 -3 -27 -6 -55 -5 -60 11 -73 20 -15 3 20 8 45 12 55
5 12 2 17 -9 17 -9 0 -16 -1 -17 -2z"/>
<path d="M3625 142 c-12 -9 -18 -102 -6 -102 15 0 33 28 21 32 -8 2 -8 11 0
32 11 30 3 51 -15 38z"/>
<path d="M3694 134 c-3 -10 -10 -29 -15 -41 -9 -23 -3 -53 11 -53 4 0 10 24
13 53 5 55 2 73 -9 41z"/>
<path d="M3999 148 c0 -2 -2 -12 -4 -23 -1 -11 -6 -35 -10 -52 -6 -27 -4 -33
9 -33 10 0 15 8 15 23 -1 12 2 37 6 55 5 21 4 32 -4 32 -6 0 -11 -1 -12 -2z"/>
<path d="M4208 125 c-6 -27 -1 -30 21 -16 8 5 11 16 8 25 -9 24 -24 19 -29 -9z"/>
<path d="M156 114 c-16 -22 -17 -29 -5 -50 7 -13 19 -24 27 -24 12 0 12 3 2
15 -8 9 -10 28 -6 50 8 42 7 42 -18 9z"/>
<path d="M479 116 c-14 -31 -4 -76 17 -76 13 0 14 3 5 14 -9 11 -10 25 -2 50
11 41 -3 49 -20 12z"/>
<path d="M1241 126 c-19 -23 -10 -80 14 -85 16 -3 17 -1 7 12 -10 12 -11 25
-3 51 10 37 2 46 -18 22z"/>
<path d="M1370 122 c0 -11 7 -22 15 -26 8 -3 15 -17 15 -31 0 -24 2 -25 15
-11 21 20 19 27 -15 59 -27 26 -30 27 -30 9z"/>
<path d="M1766 108 c-15 -35 -4 -68 23 -68 10 0 11 3 3 13 -7 8 -9 29 -5 50 7
45 -3 48 -21 5z"/>
<path d="M2272 120 c-16 -27 -15 -55 3 -70 13 -11 15 -7 15 23 0 19 3 42 6 51
9 23 -9 20 -24 -4z"/>
<path d="M2460 129 c0 -5 5 -7 10 -4 6 3 10 8 10 11 0 2 -4 4 -10 4 -5 0 -10
-5 -10 -11z"/>
<path d="M2591 110 c-23 -32 -25 -60 -3 -68 8 -2 12 7 12 25 0 16 7 39 16 51
23 34 1 26 -25 -8z"/>
<path d="M2951 126 c-19 -23 -10 -80 14 -85 16 -3 17 -1 7 12 -10 12 -11 25
-3 51 10 37 2 46 -18 22z"/>
<path d="M3081 114 c-23 -30 -25 -65 -2 -72 9 -3 11 1 7 14 -3 11 1 32 9 48
20 39 13 44 -14 10z"/>
<path d="M4157 122 c-28 -31 -19 -82 15 -82 17 0 18 2 5 15 -11 11 -13 24 -7
50 9 41 9 41 -13 17z"/>
<path d="M601 106 c-18 -33 -10 -60 19 -65 25 -3 25 -3 6 18 -13 14 -16 28
-12 46 8 31 3 32 -13 1z"/>
<path d="M1350 56 c0 -9 5 -16 10 -16 6 0 10 4 10 9 0 6 -4 13 -10 16 -5 3
-10 -1 -10 -9z"/>
</g>
</svg>
