<svg width="159" height="40" viewBox="0 0 159 40" fill="none" xmlns="http://www.w3.org/2000/svg">
<path d="M0.0321038 24V0.727272H4.95256V10.9886H5.25938L13.6344 0.727272H19.5321L10.8957 11.1477L19.6344 24H13.748L7.37301 14.4318L4.95256 17.3864V24H0.0321038ZM28.9332 24L22.2741 0.727272H27.6491L31.5014 16.8977H31.6946L35.9446 0.727272H40.5469L44.7855 16.9318H44.9901L48.8423 0.727272H54.2173L47.5582 24H42.7628L38.331 8.78409H38.1492L33.7287 24H28.9332ZM63.3713 0.727272V24H58.4509V0.727272H63.3713ZM88.4855 0.727272V24H84.2355L74.1105 9.35227H73.9401V24H69.0196V0.727272H73.3378L83.3832 15.3636H83.5878V0.727272H88.4855ZM94.1509 24V0.727272H109.56V4.78409H99.0713V10.3295H108.537V14.3864H99.0713V24H94.1509ZM114.47 24V0.727272H123.651C125.409 0.727272 126.909 1.04167 128.151 1.67045C129.401 2.29167 130.352 3.17424 131.004 4.31818C131.663 5.45454 131.992 6.79167 131.992 8.32955C131.992 9.875 131.659 11.2045 130.992 12.3182C130.326 13.4242 129.36 14.2727 128.095 14.8636C126.837 15.4545 125.314 15.75 123.526 15.75H117.379V11.7955H122.731C123.67 11.7955 124.451 11.6667 125.072 11.4091C125.693 11.1515 126.155 10.7652 126.458 10.25C126.769 9.73485 126.924 9.0947 126.924 8.32955C126.924 7.55682 126.769 6.9053 126.458 6.375C126.155 5.8447 125.689 5.44318 125.061 5.17045C124.439 4.89015 123.655 4.75 122.708 4.75H119.39V24H114.47ZM127.038 13.4091L132.822 24H127.39L121.731 13.4091H127.038ZM141.081 24H135.808L143.842 0.727272H150.183L158.206 24H152.933L147.104 6.04545H146.922L141.081 24ZM140.751 14.8523H153.206V18.6932H140.751V14.8523ZM17.2722 39V30.2727H20.7154C21.3745 30.2727 21.937 30.3906 22.4029 30.6264C22.8716 30.8594 23.2282 31.1903 23.4725 31.6193C23.7196 32.0455 23.8432 32.5469 23.8432 33.1236C23.8432 33.7031 23.7182 34.2017 23.4682 34.6193C23.2182 35.0341 22.856 35.3523 22.3816 35.5739C21.91 35.7955 21.339 35.9062 20.6685 35.9062H18.3631V34.4233H20.3702C20.7225 34.4233 21.0151 34.375 21.248 34.2784C21.481 34.1818 21.6543 34.0369 21.7679 33.8438C21.8844 33.6506 21.9426 33.4105 21.9426 33.1236C21.9426 32.8338 21.8844 32.5895 21.7679 32.3906C21.6543 32.1918 21.4796 32.0412 21.2438 31.9389C21.0108 31.8338 20.7168 31.7812 20.3617 31.7812H19.1174V39H17.2722ZM21.9853 35.0284L24.1543 39H22.1174L19.9952 35.0284H21.9853ZM25.1472 39V30.2727H31.0279V31.794H26.9924V33.8736H30.7253V35.3949H26.9924V37.4787H31.0449V39H25.1472ZM33.9991 39H32.0218L35.0346 30.2727H37.4125L40.421 39H38.4437L36.2576 32.267H36.1895L33.9991 39ZM33.8755 35.5696H38.546V37.0099H33.8755V35.5696ZM41.4714 39V30.2727H43.3166V37.4787H47.0581V39H41.4714ZM50.1252 30.2727V39H48.28V30.2727H50.1252ZM51.3109 31.794V30.2727H58.4785V31.794H55.8066V39H53.9828V31.794H51.3109ZM59.1475 30.2727H61.2143L63.2044 34.0312H63.2896L65.2797 30.2727H67.3464L64.1632 35.9148V39H62.3308V35.9148L59.1475 30.2727ZM74.2253 39H71.1316V30.2727H74.2509C75.1287 30.2727 75.8844 30.4474 76.5179 30.7969C77.1515 31.1435 77.6387 31.642 77.9796 32.2926C78.3233 32.9432 78.4952 33.7216 78.4952 34.6278C78.4952 35.5369 78.3233 36.3182 77.9796 36.9716C77.6387 37.625 77.1486 38.1264 76.5094 38.4759C75.873 38.8253 75.1117 39 74.2253 39ZM72.9767 37.419H74.1486C74.6941 37.419 75.1529 37.3224 75.525 37.1293C75.9 36.9332 76.1813 36.6307 76.3688 36.2216C76.5591 35.8097 76.6543 35.2784 76.6543 34.6278C76.6543 33.983 76.5591 33.456 76.3688 33.0469C76.1813 32.6378 75.9015 32.3366 75.5293 32.1435C75.1571 31.9503 74.6983 31.8537 74.1529 31.8537H72.9767V37.419ZM79.862 39V30.2727H85.7427V31.794H81.7072V33.8736H85.4402V35.3949H81.7072V37.4787H85.7598V39H79.862ZM88.7864 30.2727L90.8958 36.9034H90.9767L93.0904 30.2727H95.1358L92.1273 39H89.7495L86.7367 30.2727H88.7864ZM96.1863 39V30.2727H102.067V31.794H98.0314V33.8736H101.764V35.3949H98.0314V37.4787H102.084V39H96.1863ZM103.534 39V30.2727H105.379V37.4787H109.121V39H103.534ZM118.023 34.6364C118.023 35.5881 117.842 36.3977 117.481 37.0653C117.123 37.733 116.635 38.2429 116.015 38.5952C115.399 38.9446 114.706 39.1193 113.936 39.1193C113.16 39.1193 112.464 38.9432 111.848 38.5909C111.231 38.2386 110.744 37.7287 110.386 37.0611C110.028 36.3935 109.849 35.5852 109.849 34.6364C109.849 33.6847 110.028 32.875 110.386 32.2074C110.744 31.5398 111.231 31.0312 111.848 30.6818C112.464 30.3295 113.16 30.1534 113.936 30.1534C114.706 30.1534 115.399 30.3295 116.015 30.6818C116.635 31.0312 117.123 31.5398 117.481 32.2074C117.842 32.875 118.023 33.6847 118.023 34.6364ZM116.152 34.6364C116.152 34.0199 116.059 33.5 115.875 33.0767C115.693 32.6534 115.436 32.3324 115.104 32.1136C114.771 31.8949 114.382 31.7855 113.936 31.7855C113.49 31.7855 113.101 31.8949 112.768 32.1136C112.436 32.3324 112.177 32.6534 111.993 33.0767C111.811 33.5 111.72 34.0199 111.72 34.6364C111.72 35.2528 111.811 35.7727 111.993 36.196C112.177 36.6193 112.436 36.9403 112.768 37.1591C113.101 37.3778 113.49 37.4872 113.936 37.4872C114.382 37.4872 114.771 37.3778 115.104 37.1591C115.436 36.9403 115.693 36.6193 115.875 36.196C116.059 35.7727 116.152 35.2528 116.152 34.6364ZM119.389 39V30.2727H122.833C123.494 30.2727 124.058 30.3991 124.524 30.652C124.99 30.902 125.345 31.25 125.59 31.696C125.837 32.1392 125.96 32.6506 125.96 33.2301C125.96 33.8097 125.835 34.321 125.585 34.7642C125.335 35.2074 124.973 35.5526 124.499 35.7997C124.027 36.0469 123.456 36.1705 122.786 36.1705H120.591V34.6918H122.487C122.843 34.6918 123.135 34.6307 123.365 34.5085C123.598 34.3835 123.771 34.2116 123.885 33.9929C124.002 33.7713 124.06 33.517 124.06 33.2301C124.06 32.9403 124.002 32.6875 123.885 32.4716C123.771 32.2528 123.598 32.0838 123.365 31.9645C123.132 31.8423 122.837 31.7812 122.479 31.7812H121.235V39H119.389ZM127.159 39V30.2727H133.04V31.794H129.004V33.8736H132.737V35.3949H129.004V37.4787H133.057V39H127.159ZM134.507 39V30.2727H137.95C138.609 30.2727 139.171 30.3906 139.637 30.6264C140.106 30.8594 140.463 31.1903 140.707 31.6193C140.954 32.0455 141.078 32.5469 141.078 33.1236C141.078 33.7031 140.953 34.2017 140.703 34.6193C140.453 35.0341 140.09 35.3523 139.616 35.5739C139.144 35.7955 138.573 35.9062 137.903 35.9062H135.597V34.4233H137.605C137.957 34.4233 138.249 34.375 138.482 34.2784C138.715 34.1818 138.889 34.0369 139.002 33.8438C139.119 33.6506 139.177 33.4105 139.177 33.1236C139.177 32.8338 139.119 32.5895 139.002 32.3906C138.889 32.1918 138.714 32.0412 138.478 31.9389C138.245 31.8338 137.951 31.7812 137.596 31.7812H136.352V39H134.507ZM139.22 35.0284L141.389 39H139.352L137.23 35.0284H139.22ZM147.116 32.7827C147.082 32.4389 146.936 32.1719 146.677 31.9815C146.419 31.7912 146.068 31.696 145.624 31.696C145.323 31.696 145.069 31.7386 144.862 31.8239C144.654 31.9062 144.495 32.0213 144.384 32.169C144.276 32.3168 144.222 32.4844 144.222 32.6719C144.217 32.8281 144.249 32.9645 144.32 33.081C144.394 33.1974 144.495 33.2983 144.623 33.3835C144.751 33.4659 144.899 33.5384 145.066 33.6009C145.234 33.6605 145.413 33.7116 145.603 33.7543L146.387 33.9418C146.768 34.027 147.117 34.1406 147.436 34.2827C147.754 34.4247 148.029 34.5994 148.262 34.8068C148.495 35.0142 148.676 35.2585 148.803 35.5398C148.934 35.821 149.001 36.1435 149.004 36.5071C149.001 37.0412 148.865 37.5043 148.595 37.8963C148.328 38.2855 147.941 38.5881 147.436 38.804C146.933 39.017 146.326 39.1236 145.616 39.1236C144.911 39.1236 144.298 39.0156 143.775 38.7997C143.255 38.5838 142.849 38.2642 142.556 37.8409C142.267 37.4148 142.115 36.8878 142.1 36.2599H143.886C143.906 36.5526 143.99 36.7969 144.137 36.9929C144.288 37.1861 144.488 37.3324 144.738 37.4318C144.991 37.5284 145.276 37.5767 145.595 37.5767C145.907 37.5767 146.178 37.5312 146.409 37.4403C146.642 37.3494 146.822 37.223 146.95 37.0611C147.078 36.8991 147.142 36.7131 147.142 36.5028C147.142 36.3068 147.083 36.142 146.967 36.0085C146.853 35.875 146.686 35.7614 146.464 35.6676C146.245 35.5739 145.977 35.4886 145.659 35.4119L144.708 35.1733C143.972 34.9943 143.392 34.7145 142.965 34.3338C142.539 33.9531 142.328 33.4403 142.33 32.7955C142.328 32.267 142.468 31.8054 142.752 31.4105C143.039 31.0156 143.433 30.7074 143.933 30.4858C144.433 30.2642 145.001 30.1534 145.637 30.1534C146.285 30.1534 146.85 30.2642 147.333 30.4858C147.819 30.7074 148.197 31.0156 148.467 31.4105C148.737 31.8054 148.876 32.2628 148.884 32.7827H147.116Z" fill="url(#paint0_linear_117_1887)"/>
<defs>
<linearGradient id="paint0_linear_117_1887" x1="-2" y1="18" x2="168" y2="18" gradientUnits="userSpaceOnUse">
<stop stop-color="#F26522"/>
<stop offset="1" stop-color="#0060AF"/>
</linearGradient>
</defs>
</svg>
